<svg xmlns="http://www.w3.org/2000/svg" xml:space="preserve" viewBox="923.68 480.19 64.63 64.63"><defs><clipPath id="a"><rect x="923.69" y="480.18" width="64.63" height="64.63" rx="8.5" ry="8.5"/></clipPath></defs><g clip-path="url(#a)"><rect x="923.68" y="480.19" width="64.63" height="64.63" rx="8.5" ry="8.5" fill="#df4113"/><path fill="#fff" d="M943.2 518.49c.87.09 1.76.24 2.66.45l.83-5.1c-2.4-.58-4.8-.61-7.19-.1-2.19.47-4 1.34-5.42 2.62-1.42 1.28-2.38 2.88-2.87 4.8-.49 1.92-.5 4.03 0 6.32.78 3.67 2.26 6.28 4.46 7.84 2.19 1.56 4.96 1.98 8.3 1.27 2.33-.5 4.34-1.35 6.01-2.56l-1.08-5.06c-.85.58-1.7 1.11-2.56 1.57-.86.47-1.78.81-2.76 1.01-3.24.69-5.31-1.1-6.22-5.36-.44-2.05-.38-3.74.17-5.08.55-1.34 1.54-2.16 2.96-2.46.94-.2 1.84-.26 2.72-.17"/><path fill="#fff" d="M960.46 501.92h.03-.03q.78.26 2.34.82c.59.22 1.08.69 1.31 1.27l.05.13.66 1.99.11.33v.03c.03.07.07.13.13.16.1.06.23.05.32-.03.03-.03.06-.06.08-.1l.24-.62c.22-.56.44-1.15.65-1.72.1-.27.25-.51.44-.72.21-.24.48-.42.78-.55l.31-.12 2.09-.8c.18-.07.23-.3.11-.44a.3.3 0 0 0-.12-.08c-.77-.28-1.56-.55-2.34-.81-.14-.05-.27-.11-.4-.18-.39-.22-.71-.57-.9-.97l-.08-.18-.84-2.29-.02-.06c-.05-.11-.18-.15-.29-.1a.2.2 0 0 0-.08.08v.04c-.3.76-.62 1.53-.91 2.29-.05.13-.12.26-.19.39-.19.31-.45.56-.76.75-.1.06-.21.11-.31.16-.73.28-1.48.58-2.21.88l-.11.04h-.04a.3.3 0 0 0-.09.06c-.07.08-.06.22.03.29"/><path fill="#fff" d="m960.73 497.66.03.08.21.67c.05.12.22.11.26 0l.19-.5.12-.3c.14-.27.38-.49.67-.61l.67-.26a.14.14 0 0 0 .05-.04c.05-.06.04-.14-.02-.19l-.04-.02-.66-.22c-.1-.03-.2-.08-.3-.14-.21-.13-.38-.33-.47-.56l-.09-.24-.17-.5-.03-.04c-.05-.05-.13-.03-.16.02l-.28.66c-.13.32-.38.59-.69.74l-.06.03-.49.21-.15.07h-.02c-.05.03-.06.1-.01.14l.03.01.66.23c.34.12.62.4.74.75"/><path fill="#fff" d="M973.28 495.32c0-.11-.09-.21-.19-.24-.41-.14-.82-.26-1.23-.39-.19-.06-.37-.14-.54-.25-.38-.24-.69-.6-.87-1.02l-.04-.11-.41-1.22-.01-.03c-.06-.15-.25-.18-.36-.06a.2.2 0 0 0-.04.07v.04c-.18.38-.35.76-.51 1.15-.04.09-.08.18-.12.26-.05.08-.1.17-.15.24-.27.38-.64.69-1.07.89l-1.19.54h-.01l-.06.05c-.07.08-.04.22.06.26.41.13.83.26 1.23.42.63.23 1.13.75 1.34 1.38l.13.44.28.92.01.03c.12.25.48.24.57-.02l.47-1.2c.03-.09.07-.17.12-.26.22-.42.56-.77.98-.99l.19-.09.36-.14c.22-.09.71-.28.92-.37.11-.05.17-.16.16-.28"/><path fill="#fff" d="M978.8 507.05c0 .73-.59 1.32-1.32 1.32h-4.16c-.29 0-.53.22-.55.5-.05.55-.1 1.29-.13 2.13h0c-.1 1.14.04 2.34.25 3.35-1.33-.54-3.04-1.52-4.29-3.26-.19-.24-.98-1.31-1.37-2.35-.08-.22-.29-.36-.52-.36h-13.21c-.73 0-1.32-.59-1.32-1.32v-15.21c0-.73.59-1.32 1.32-1.32h23.98c.73 0 1.32.59 1.32 1.32zm-1.31-19.15h-23.98a3.95 3.95 0 0 0-3.95 3.95v15.21a3.95 3.95 0 0 0 3.95 3.95h12c2.71 5.62 8.83 6.52 9.1 6.56q.09.01.18.01c.4 0 .77-.18 1.03-.49.29-.36.37-.84.21-1.28-.44-1.2-.92-3.34-.72-4.8h2.19a3.95 3.95 0 0 0 3.95-3.95v-15.21a3.95 3.95 0 0 0-3.95-3.95"/></g></svg>
